<mxfile host="app.diagrams.net" modified="2024-04-15T21:58:01.341Z" agent="Mozilla/5.0 (Windows NT 10.0; Win64; x64) AppleWebKit/537.36 (KHTML, like Gecko) Chrome/123.0.0.0 Safari/537.36" version="24.2.3" etag="sxLXIE_lacff3M5I1jm4" type="github">
  <diagram name="PÃ¡gina-1" id="Exn9129zInlfy8kHegNU">
    <mxGraphModel>
      <root>
        <mxCell id="0" />
        <mxCell id="1" parent="0" />
      </root>
    </mxGraphModel>
  </diagram>
</mxfile>
